# xmcd CD database file
#
# Track frame offsets:
#	182
#	12937
#	22937
#	31602
#	43590
#	57520
#	67112
#	78722
#	90040
#	100232
#	109632
#	122672
#	132810
#	144292
#	156942
#	166810
#	177677
#	193312
#
# Disc length: 2707 seconds
#
# Revision: 5
# Processed by: cddbd v1.5.2PL0 Copyright (c) Steve Scherf et al.
# Submitted via: CDex 1.51
#
DISCID=e80a9112
DTITLE=Various Artist - Country And Western - Volume 1
DYEAR=1987
DGENRE=Country
TTITLE0=Johnny Cash - Folsum Prision Blues
TTITLE1=Johnny Cash - Hey Porter
TTITLE2=Conway Twitty - Blue Is The Way I Feel
TTITLE3=Conway Twitty - You Made Me What I Am
TTITLE4=Willie Nelson - Home Is Where You're Happy
TTITLE5=Willie Nelson - I'm Building Heartaches
TTITLE6=Patsy Cline - I've Loved And Lost Again
TTITLE7=Patsy Cline - Just Out Of Reach
TTITLE8=Faron Young - Hello Walls
TTITLE9=Faron Young - I Can't Help It
TTITLE10=Don Williams - Where Do We Go From Here
TTITLE11=Don Williams - Take My Hand For A While
TTITLE12=George Jones - World's Worst Loser
TTITLE13=George Jones - I Can't Change Overnight
TTITLE14=Johnny Paycheck - I Don't Need To Know That Right Now
TTITLE15=Johnny Paycheck - Georgia In A Jug
TTITLE16=Dolly Parton - Release Me
TTITLE17=Dolly Parton - It Wasn't God Who Made Honky Tonk Angels
EXTD=YEAR: 1987
EXTT0=
EXTT1=
EXTT2=
EXTT3=
EXTT4=
EXTT5=
EXTT6=
EXTT7=
EXTT8=
EXTT9=
EXTT10=
EXTT11=
EXTT12=
EXTT13=
EXTT14=
EXTT15=
EXTT16=
EXTT17=
PLAYORDER=
